<svg xmlns="http://www.w3.org/2000/svg" xmlns:xlink="http://www.w3.org/1999/xlink" width="500" zoomAndPan="magnify" viewBox="0 0 375 149.999998" height="200" preserveAspectRatio="xMidYMid meet" version="1.0"><defs><g/><clipPath id="82d92bf375"><path d="M 15 12.503906 L 108.75 12.503906 L 108.75 114.503906 L 15 114.503906 Z M 15 12.503906 " clip-rule="nonzero"/></clipPath></defs><g clip-path="url(#82d92bf375)"><path fill="#021526" d="M 73.992188 109.042969 C 75.582031 109.042969 76.871094 110.332031 76.871094 111.925781 C 76.871094 113.515625 75.582031 114.804688 73.992188 114.804688 L 38.726562 114.804688 C 35.878906 114.804688 33.289062 113.640625 31.417969 111.765625 C 29.542969 109.894531 28.378906 107.304688 28.378906 104.457031 L 28.378906 68.074219 L 23.25 68.074219 C 21.242188 68.074219 19.59375 67.550781 18.304688 66.679688 C 16.878906 65.714844 15.9375 64.351562 15.460938 62.804688 L 15.457031 62.804688 C 15.015625 61.367188 15.003906 59.78125 15.398438 58.246094 C 15.867188 56.410156 16.925781 54.625 18.535156 53.238281 L 62.625 15.230469 C 64.734375 13.414062 67.472656 12.503906 70.179688 12.503906 C 72.886719 12.503906 75.621094 13.414062 77.730469 15.230469 L 107.363281 40.859375 C 108.5625 41.898438 108.695312 43.710938 107.65625 44.910156 C 106.621094 46.109375 104.808594 46.238281 103.609375 45.203125 L 73.976562 19.574219 C 72.960938 18.699219 71.585938 18.265625 70.179688 18.265625 C 68.773438 18.265625 67.394531 18.703125 66.382812 19.574219 L 22.289062 57.582031 C 21.59375 58.179688 21.144531 58.921875 20.957031 59.664062 C 20.824219 60.183594 20.820312 60.6875 20.949219 61.117188 L 20.945312 61.117188 L 20.949219 61.128906 C 21.042969 61.4375 21.234375 61.710938 21.523438 61.90625 C 21.898438 62.160156 22.46875 62.316406 23.25 62.316406 L 31.257812 62.316406 C 32.847656 62.316406 34.140625 63.605469 34.140625 65.195312 L 34.140625 104.457031 C 34.140625 105.714844 34.65625 106.863281 35.488281 107.695312 C 36.320312 108.527344 37.46875 109.042969 38.726562 109.042969 Z M 73.992188 109.042969 " fill-opacity="1" fill-rule="nonzero"/></g><path fill="#03346e" d="M 32.832031 15.015625 L 47.664062 15.015625 L 47.664062 23.082031 L 41.773438 28.160156 L 41.773438 20.90625 L 35.777344 20.90625 L 35.777344 33.332031 L 29.882812 38.410156 L 29.882812 15.015625 Z M 32.832031 15.015625 " fill-opacity="1" fill-rule="nonzero"/><path fill="#03346e" d="M 56.265625 51.824219 L 66.484375 51.824219 C 67.484375 51.824219 68.304688 52.644531 68.304688 53.644531 L 68.304688 63.867188 C 68.304688 64.867188 67.484375 65.6875 66.484375 65.6875 L 56.265625 65.6875 C 55.261719 65.6875 54.445312 64.867188 54.445312 63.867188 L 54.445312 53.644531 C 54.445312 52.644531 55.261719 51.824219 56.265625 51.824219 Z M 84.003906 83.207031 L 73.785156 83.207031 C 72.785156 83.207031 71.964844 82.386719 71.964844 81.386719 L 71.964844 71.167969 C 71.964844 70.167969 72.785156 69.347656 73.785156 69.347656 L 84.003906 69.347656 C 85.007812 69.347656 85.824219 70.167969 85.824219 71.167969 L 85.824219 81.386719 C 85.824219 82.386719 85.007812 83.207031 84.003906 83.207031 Z M 54.445312 81.386719 L 54.445312 71.167969 C 54.445312 70.167969 55.261719 69.347656 56.265625 69.347656 L 66.484375 69.347656 C 67.484375 69.347656 68.304688 70.167969 68.304688 71.167969 L 68.304688 81.386719 C 68.304688 82.386719 67.484375 83.207031 66.484375 83.207031 L 56.265625 83.207031 C 55.261719 83.207031 54.445312 82.386719 54.445312 81.386719 Z M 85.824219 53.644531 L 85.824219 63.867188 C 85.824219 64.867188 85.007812 65.6875 84.007812 65.6875 L 73.785156 65.6875 C 72.785156 65.6875 71.964844 64.867188 71.964844 63.867188 L 71.964844 53.644531 C 71.964844 52.644531 72.785156 51.824219 73.785156 51.824219 L 84.003906 51.824219 C 85.007812 51.824219 85.824219 52.644531 85.824219 53.644531 Z M 85.824219 53.644531 " fill-opacity="1" fill-rule="evenodd"/><g fill="#021526" fill-opacity="1"><g transform="translate(87.98312, 115.827331)"><g><path d="M 19.953125 -39 L 19.953125 -41.21875 C 19.953125 -42.59375 19.59375 -43.769531 18.875 -44.75 C 18.164062 -45.726562 17.097656 -46.21875 15.671875 -46.21875 C 15.003906 -46.21875 14.34375 -46.050781 13.6875 -45.71875 C 13.03125 -45.394531 12.484375 -44.867188 12.046875 -44.140625 C 11.609375 -43.410156 11.390625 -42.4375 11.390625 -41.21875 C 11.390625 -39.976562 11.632812 -38.914062 12.125 -38.03125 C 12.613281 -37.144531 13.300781 -36.316406 14.1875 -35.546875 C 15.070312 -34.773438 16.09375 -33.929688 17.25 -33.015625 C 19.101562 -31.578125 20.835938 -30.179688 22.453125 -28.828125 C 24.066406 -27.484375 25.484375 -26.054688 26.703125 -24.546875 C 27.921875 -23.046875 28.875 -21.351562 29.5625 -19.46875 C 30.25 -17.59375 30.59375 -15.398438 30.59375 -12.890625 C 30.59375 -11.035156 30.238281 -9.28125 29.53125 -7.625 C 28.832031 -5.976562 27.84375 -4.515625 26.5625 -3.234375 C 25.28125 -1.953125 23.738281 -0.945312 21.9375 -0.21875 C 20.132812 0.507812 18.140625 0.875 15.953125 0.875 C 13.566406 0.875 11.472656 0.484375 9.671875 -0.296875 C 7.878906 -1.078125 6.378906 -2.128906 5.171875 -3.453125 C 3.972656 -4.773438 3.078125 -6.296875 2.484375 -8.015625 C 1.890625 -9.734375 1.59375 -11.519531 1.59375 -13.375 L 1.59375 -15.46875 C 1.59375 -16.15625 1.675781 -16.644531 1.84375 -16.9375 C 2.019531 -17.226562 2.382812 -17.375 2.9375 -17.375 L 10.15625 -17.375 C 10.707031 -17.375 11.066406 -17.253906 11.234375 -17.015625 C 11.410156 -16.773438 11.5 -16.351562 11.5 -15.75 L 11.5 -13.96875 C 11.5 -12.644531 11.738281 -11.597656 12.21875 -10.828125 C 12.695312 -10.066406 13.285156 -9.523438 13.984375 -9.203125 C 14.679688 -8.890625 15.363281 -8.734375 16.03125 -8.734375 C 17.269531 -8.734375 18.332031 -9.15625 19.21875 -10 C 20.101562 -10.84375 20.546875 -11.992188 20.546875 -13.453125 C 20.546875 -14.742188 20.304688 -15.859375 19.828125 -16.796875 C 19.359375 -17.734375 18.613281 -18.675781 17.59375 -19.625 C 16.570312 -20.582031 15.242188 -21.722656 13.609375 -23.046875 C 11.546875 -24.742188 9.753906 -26.238281 8.234375 -27.53125 C 6.710938 -28.832031 5.460938 -30.125 4.484375 -31.40625 C 3.503906 -32.6875 2.773438 -34.117188 2.296875 -35.703125 C 1.828125 -37.296875 1.59375 -39.226562 1.59375 -41.5 C 1.59375 -43.5625 1.894531 -45.378906 2.5 -46.953125 C 3.101562 -48.523438 3.914062 -49.863281 4.9375 -50.96875 C 5.957031 -52.082031 7.085938 -52.988281 8.328125 -53.6875 C 9.578125 -54.394531 10.832031 -54.910156 12.09375 -55.234375 C 13.363281 -55.566406 14.554688 -55.734375 15.671875 -55.734375 C 18.421875 -55.734375 20.851562 -55.140625 22.96875 -53.953125 C 25.082031 -52.765625 26.738281 -51.082031 27.9375 -48.90625 C 29.144531 -46.738281 29.75 -44.191406 29.75 -41.265625 L 29.75 -39 C 29.75 -38.445312 29.648438 -38.054688 29.453125 -37.828125 C 29.253906 -37.597656 28.835938 -37.484375 28.203125 -37.484375 L 21.109375 -37.484375 C 20.609375 -37.484375 20.289062 -37.597656 20.15625 -37.828125 C 20.019531 -38.054688 19.953125 -38.445312 19.953125 -39 Z M 19.953125 -39 "/></g></g></g><g fill="#021526" fill-opacity="1"><g transform="translate(119.721968, 115.827331)"><g><path d="M 26.46875 -45.265625 L 19.078125 -45.265625 L 19.078125 -1.390625 C 19.078125 -0.941406 18.960938 -0.597656 18.734375 -0.359375 C 18.515625 -0.117188 18.25 0 17.9375 0 L 9.640625 0 C 9.296875 0 9.015625 -0.117188 8.796875 -0.359375 C 8.585938 -0.597656 8.484375 -0.941406 8.484375 -1.390625 L 8.484375 -45.265625 L 1.109375 -45.265625 C 0.765625 -45.265625 0.484375 -45.382812 0.265625 -45.625 C 0.0546875 -45.863281 -0.046875 -46.21875 -0.046875 -46.6875 L -0.046875 -53.4375 C -0.046875 -53.914062 0.0546875 -54.28125 0.265625 -54.53125 C 0.484375 -54.78125 0.765625 -54.90625 1.109375 -54.90625 L 26.46875 -54.90625 C 26.8125 -54.90625 27.085938 -54.785156 27.296875 -54.546875 C 27.503906 -54.304688 27.609375 -53.953125 27.609375 -53.484375 L 27.609375 -46.6875 C 27.609375 -46.21875 27.503906 -45.863281 27.296875 -45.625 C 27.085938 -45.382812 26.8125 -45.265625 26.46875 -45.265625 Z M 26.46875 -45.265625 "/></g></g></g><g fill="#021526" fill-opacity="1"><g transform="translate(147.255419, 115.827331)"><g><path d="M 13.09375 -41.421875 L 13.09375 -22.328125 L 21.546875 -22.328125 L 21.546875 -41.421875 C 21.546875 -42.660156 21.175781 -43.757812 20.4375 -44.71875 C 19.695312 -45.6875 18.664062 -46.171875 17.34375 -46.171875 C 15.988281 -46.171875 14.941406 -45.6875 14.203125 -44.71875 C 13.460938 -43.757812 13.09375 -42.660156 13.09375 -41.421875 Z M 32.140625 -42.015625 L 32.140625 -1.59375 C 32.140625 -1.1875 32.039062 -0.816406 31.84375 -0.484375 C 31.644531 -0.160156 31.316406 0 30.859375 0 L 22.8125 0 C 22.414062 0 22.101562 -0.15625 21.875 -0.46875 C 21.65625 -0.789062 21.546875 -1.164062 21.546875 -1.59375 L 21.546875 -13.09375 L 13.09375 -13.09375 L 13.09375 -1.546875 C 13.09375 -1.117188 13.007812 -0.753906 12.84375 -0.453125 C 12.6875 -0.148438 12.375 0 11.90625 0 L 3.53125 0 C 3.238281 0 2.992188 -0.148438 2.796875 -0.453125 C 2.597656 -0.753906 2.5 -1.117188 2.5 -1.546875 L 2.5 -42.015625 C 2.5 -43.921875 2.894531 -45.707031 3.6875 -47.375 C 4.476562 -49.039062 5.554688 -50.5 6.921875 -51.75 C 8.285156 -53.007812 9.859375 -53.992188 11.640625 -54.703125 C 13.429688 -55.421875 15.316406 -55.78125 17.296875 -55.78125 C 19.273438 -55.78125 21.15625 -55.421875 22.9375 -54.703125 C 24.726562 -53.992188 26.3125 -53.007812 27.6875 -51.75 C 29.0625 -50.5 30.144531 -49.039062 30.9375 -47.375 C 31.738281 -45.707031 32.140625 -43.921875 32.140625 -42.015625 Z M 32.140625 -42.015625 "/></g></g></g><g fill="#021526" fill-opacity="1"><g transform="translate(181.890443, 115.827331)"><g><path d="M 21.734375 -22.0625 L 21.734375 -1.546875 C 21.734375 -0.515625 21.351562 0 20.59375 0 L 12.375 0 C 11.582031 0 11.1875 -0.515625 11.1875 -1.546875 L 11.1875 -22.09375 C 9.363281 -22.707031 7.726562 -23.613281 6.28125 -24.8125 C 4.84375 -26.019531 3.710938 -27.488281 2.890625 -29.21875 C 2.078125 -30.945312 1.671875 -32.882812 1.671875 -35.03125 L 1.703125 -54 C 1.703125 -54.257812 1.769531 -54.472656 1.90625 -54.640625 C 2.039062 -54.816406 2.253906 -54.90625 2.546875 -54.90625 L 11.265625 -54.90625 C 11.585938 -54.90625 11.832031 -54.816406 12 -54.640625 C 12.175781 -54.472656 12.265625 -54.285156 12.265625 -54.078125 L 12.265625 -35.59375 C 12.265625 -34.34375 12.617188 -33.234375 13.328125 -32.265625 C 14.046875 -31.304688 15.09375 -30.828125 16.46875 -30.828125 C 17.84375 -30.828125 18.890625 -31.269531 19.609375 -32.15625 C 20.335938 -33.039062 20.703125 -34.101562 20.703125 -35.34375 L 20.703125 -54 C 20.703125 -54.257812 20.773438 -54.472656 20.921875 -54.640625 C 21.066406 -54.816406 21.285156 -54.90625 21.578125 -54.90625 L 30.46875 -54.90625 C 31.019531 -54.90625 31.296875 -54.613281 31.296875 -54.03125 L 31.296875 -35.03125 C 31.296875 -32.832031 30.878906 -30.867188 30.046875 -29.140625 C 29.210938 -27.410156 28.078125 -25.945312 26.640625 -24.75 C 25.203125 -23.5625 23.566406 -22.664062 21.734375 -22.0625 Z M 21.734375 -22.0625 "/></g></g></g><g fill="#021526" fill-opacity="1"><g transform="translate(214.859179, 115.827331)"><g><path d="M 13.40625 -9.5625 L 28.125 -9.5625 C 28.445312 -9.5625 28.71875 -9.445312 28.9375 -9.21875 C 29.164062 -9 29.28125 -8.664062 29.28125 -8.21875 L 29.28125 -1.390625 C 29.28125 -0.910156 29.164062 -0.554688 28.9375 -0.328125 C 28.71875 -0.109375 28.445312 0 28.125 0 L 4.203125 0 C 3.304688 0 2.859375 -0.5 2.859375 -1.5 L 2.859375 -53.359375 C 2.859375 -54.390625 3.304688 -54.90625 4.203125 -54.90625 L 27.9375 -54.90625 C 28.675781 -54.90625 29.046875 -54.414062 29.046875 -53.4375 L 29.046875 -46.6875 C 29.046875 -45.738281 28.675781 -45.265625 27.9375 -45.265625 L 13.40625 -45.265625 L 13.40625 -32.53125 L 25 -32.53125 C 25.34375 -32.53125 25.640625 -32.421875 25.890625 -32.203125 C 26.140625 -31.992188 26.265625 -31.640625 26.265625 -31.140625 L 26.265625 -24.359375 C 26.265625 -23.878906 26.144531 -23.535156 25.90625 -23.328125 C 25.664062 -23.117188 25.363281 -23.015625 25 -23.015625 L 13.40625 -23.015625 Z M 13.40625 -9.5625 "/></g></g></g><g fill="#021526" fill-opacity="1"><g transform="translate(245.050765, 115.827331)"><g><path d="M 13.09375 -41.421875 L 13.09375 -22.328125 L 21.546875 -22.328125 L 21.546875 -41.421875 C 21.546875 -42.660156 21.175781 -43.757812 20.4375 -44.71875 C 19.695312 -45.6875 18.664062 -46.171875 17.34375 -46.171875 C 15.988281 -46.171875 14.941406 -45.6875 14.203125 -44.71875 C 13.460938 -43.757812 13.09375 -42.660156 13.09375 -41.421875 Z M 32.140625 -42.015625 L 32.140625 -1.59375 C 32.140625 -1.1875 32.039062 -0.816406 31.84375 -0.484375 C 31.644531 -0.160156 31.316406 0 30.859375 0 L 22.8125 0 C 22.414062 0 22.101562 -0.15625 21.875 -0.46875 C 21.65625 -0.789062 21.546875 -1.164062 21.546875 -1.59375 L 21.546875 -13.09375 L 13.09375 -13.09375 L 13.09375 -1.546875 C 13.09375 -1.117188 13.007812 -0.753906 12.84375 -0.453125 C 12.6875 -0.148438 12.375 0 11.90625 0 L 3.53125 0 C 3.238281 0 2.992188 -0.148438 2.796875 -0.453125 C 2.597656 -0.753906 2.5 -1.117188 2.5 -1.546875 L 2.5 -42.015625 C 2.5 -43.921875 2.894531 -45.707031 3.6875 -47.375 C 4.476562 -49.039062 5.554688 -50.5 6.921875 -51.75 C 8.285156 -53.007812 9.859375 -53.992188 11.640625 -54.703125 C 13.429688 -55.421875 15.316406 -55.78125 17.296875 -55.78125 C 19.273438 -55.78125 21.15625 -55.421875 22.9375 -54.703125 C 24.726562 -53.992188 26.3125 -53.007812 27.6875 -51.75 C 29.0625 -50.5 30.144531 -49.039062 30.9375 -47.375 C 31.738281 -45.707031 32.140625 -43.921875 32.140625 -42.015625 Z M 32.140625 -42.015625 "/></g></g></g><g fill="#021526" fill-opacity="1"><g transform="translate(279.68579, 115.827331)"><g><path d="M 19.953125 -39 L 19.953125 -41.21875 C 19.953125 -42.59375 19.59375 -43.769531 18.875 -44.75 C 18.164062 -45.726562 17.097656 -46.21875 15.671875 -46.21875 C 15.003906 -46.21875 14.34375 -46.050781 13.6875 -45.71875 C 13.03125 -45.394531 12.484375 -44.867188 12.046875 -44.140625 C 11.609375 -43.410156 11.390625 -42.4375 11.390625 -41.21875 C 11.390625 -39.976562 11.632812 -38.914062 12.125 -38.03125 C 12.613281 -37.144531 13.300781 -36.316406 14.1875 -35.546875 C 15.070312 -34.773438 16.09375 -33.929688 17.25 -33.015625 C 19.101562 -31.578125 20.835938 -30.179688 22.453125 -28.828125 C 24.066406 -27.484375 25.484375 -26.054688 26.703125 -24.546875 C 27.921875 -23.046875 28.875 -21.351562 29.5625 -19.46875 C 30.25 -17.59375 30.59375 -15.398438 30.59375 -12.890625 C 30.59375 -11.035156 30.238281 -9.28125 29.53125 -7.625 C 28.832031 -5.976562 27.84375 -4.515625 26.5625 -3.234375 C 25.28125 -1.953125 23.738281 -0.945312 21.9375 -0.21875 C 20.132812 0.507812 18.140625 0.875 15.953125 0.875 C 13.566406 0.875 11.472656 0.484375 9.671875 -0.296875 C 7.878906 -1.078125 6.378906 -2.128906 5.171875 -3.453125 C 3.972656 -4.773438 3.078125 -6.296875 2.484375 -8.015625 C 1.890625 -9.734375 1.59375 -11.519531 1.59375 -13.375 L 1.59375 -15.46875 C 1.59375 -16.15625 1.675781 -16.644531 1.84375 -16.9375 C 2.019531 -17.226562 2.382812 -17.375 2.9375 -17.375 L 10.15625 -17.375 C 10.707031 -17.375 11.066406 -17.253906 11.234375 -17.015625 C 11.410156 -16.773438 11.5 -16.351562 11.5 -15.75 L 11.5 -13.96875 C 11.5 -12.644531 11.738281 -11.597656 12.21875 -10.828125 C 12.695312 -10.066406 13.285156 -9.523438 13.984375 -9.203125 C 14.679688 -8.890625 15.363281 -8.734375 16.03125 -8.734375 C 17.269531 -8.734375 18.332031 -9.15625 19.21875 -10 C 20.101562 -10.84375 20.546875 -11.992188 20.546875 -13.453125 C 20.546875 -14.742188 20.304688 -15.859375 19.828125 -16.796875 C 19.359375 -17.734375 18.613281 -18.675781 17.59375 -19.625 C 16.570312 -20.582031 15.242188 -21.722656 13.609375 -23.046875 C 11.546875 -24.742188 9.753906 -26.238281 8.234375 -27.53125 C 6.710938 -28.832031 5.460938 -30.125 4.484375 -31.40625 C 3.503906 -32.6875 2.773438 -34.117188 2.296875 -35.703125 C 1.828125 -37.296875 1.59375 -39.226562 1.59375 -41.5 C 1.59375 -43.5625 1.894531 -45.378906 2.5 -46.953125 C 3.101562 -48.523438 3.914062 -49.863281 4.9375 -50.96875 C 5.957031 -52.082031 7.085938 -52.988281 8.328125 -53.6875 C 9.578125 -54.394531 10.832031 -54.910156 12.09375 -55.234375 C 13.363281 -55.566406 14.554688 -55.734375 15.671875 -55.734375 C 18.421875 -55.734375 20.851562 -55.140625 22.96875 -53.953125 C 25.082031 -52.765625 26.738281 -51.082031 27.9375 -48.90625 C 29.144531 -46.738281 29.75 -44.191406 29.75 -41.265625 L 29.75 -39 C 29.75 -38.445312 29.648438 -38.054688 29.453125 -37.828125 C 29.253906 -37.597656 28.835938 -37.484375 28.203125 -37.484375 L 21.109375 -37.484375 C 20.609375 -37.484375 20.289062 -37.597656 20.15625 -37.828125 C 20.019531 -38.054688 19.953125 -38.445312 19.953125 -39 Z M 19.953125 -39 "/></g></g></g><g fill="#021526" fill-opacity="1"><g transform="translate(311.424638, 115.827331)"><g><path d="M 13.40625 -9.5625 L 28.125 -9.5625 C 28.445312 -9.5625 28.71875 -9.445312 28.9375 -9.21875 C 29.164062 -9 29.28125 -8.664062 29.28125 -8.21875 L 29.28125 -1.390625 C 29.28125 -0.910156 29.164062 -0.554688 28.9375 -0.328125 C 28.71875 -0.109375 28.445312 0 28.125 0 L 4.203125 0 C 3.304688 0 2.859375 -0.5 2.859375 -1.5 L 2.859375 -53.359375 C 2.859375 -54.390625 3.304688 -54.90625 4.203125 -54.90625 L 27.9375 -54.90625 C 28.675781 -54.90625 29.046875 -54.414062 29.046875 -53.4375 L 29.046875 -46.6875 C 29.046875 -45.738281 28.675781 -45.265625 27.9375 -45.265625 L 13.40625 -45.265625 L 13.40625 -32.53125 L 25 -32.53125 C 25.34375 -32.53125 25.640625 -32.421875 25.890625 -32.203125 C 26.140625 -31.992188 26.265625 -31.640625 26.265625 -31.140625 L 26.265625 -24.359375 C 26.265625 -23.878906 26.144531 -23.535156 25.90625 -23.328125 C 25.664062 -23.117188 25.363281 -23.015625 25 -23.015625 L 13.40625 -23.015625 Z M 13.40625 -9.5625 "/></g></g></g></svg>